<svg xmlns="http://www.w3.org/2000/svg" x="0px" y="0px" width="220px" height="40px" viewBox="0 0 220 40">
	<g>
		<path fill="#FFFFFF" d="M215.79,0.55c0.16,0,0.23,0.06,0.23,0.23c0,0.07,0,0.1-0.03,0.13c0,0.03-0.03,0.06-0.03,0.1h-1.07v2.78
			h-0.52V1h-0.84c-0.16,0-0.23-0.06-0.23-0.23c0-0.06,0-0.1,0.03-0.13c0-0.03,0.03-0.06,0.03-0.1
			C213.4,0.55,215.79,0.55,215.79,0.55z"/>
		<path fill="#FFFFFF" d="M219.51,3.75c0-0.03,0-0.13,0-0.26c0-0.13,0-0.29-0.03-0.45c-0.03-0.16-0.03-0.36-0.03-0.55
			c0-0.19-0.03-0.39-0.03-0.55c0-0.16-0.03-0.32-0.03-0.45c0-0.13,0-0.23,0-0.26c-0.03,0.06-0.06,0.16-0.13,0.26
			c-0.07,0.1-0.1,0.19-0.16,0.32c-0.06,0.13-0.1,0.23-0.16,0.36c-0.06,0.13-0.13,0.26-0.16,0.36c-0.03,0.1-0.1,0.23-0.16,0.32
			s-0.1,0.19-0.13,0.26h-0.36c-0.06-0.13-0.13-0.26-0.19-0.42c-0.07-0.16-0.16-0.32-0.26-0.52c-0.1-0.19-0.16-0.36-0.26-0.52
			c-0.06-0.16-0.16-0.32-0.23-0.45c0,0.06,0,0.16,0,0.29c0,0.13,0,0.29-0.03,0.45c-0.03,0.16-0.03,0.32-0.03,0.52
			s-0.03,0.36-0.03,0.52c0,0.16,0,0.32-0.03,0.45c0,0.13,0,0.23,0,0.32h-0.48c0-0.06,0-0.19,0-0.36c0-0.16,0-0.32,0.03-0.52
			c0.03-0.19,0.03-0.39,0.03-0.58c0-0.19,0.03-0.42,0.03-0.58c0-0.19,0.03-0.36,0.03-0.52c0-0.16,0-0.26,0.03-0.36
			c0-0.1,0.03-0.16,0.1-0.23s0.13-0.06,0.23-0.06c0.1,0,0.16,0,0.23,0.03s0.1,0.06,0.13,0.1c0.03,0.06,0.06,0.13,0.1,0.23
			c0.03,0.1,0.1,0.19,0.16,0.29c0.06,0.1,0.1,0.23,0.16,0.36c0.07,0.13,0.13,0.26,0.16,0.36c0.06,0.13,0.1,0.23,0.16,0.32
			c0.07,0.1,0.1,0.19,0.13,0.26c0.06-0.1,0.1-0.23,0.19-0.39c0.07-0.16,0.16-0.32,0.23-0.49s0.16-0.32,0.23-0.49
			s0.13-0.26,0.16-0.36c0.03-0.06,0.1-0.13,0.13-0.19c0.06-0.06,0.13-0.06,0.26-0.06c0.1,0,0.16,0,0.23,0.03
			c0.06,0.03,0.1,0.03,0.1,0.06c0,0.1,0,0.23,0.03,0.39c0,0.16,0.03,0.36,0.03,0.55s0.03,0.42,0.03,0.65s0.03,0.42,0.03,0.65
			s0.03,0.39,0.03,0.55c0,0.16,0,0.29,0.03,0.39C220,3.75,219.51,3.75,219.51,3.75z"/>
		<path fill="#64AFE4" d="M9.25,4.63c0,2.56-2.07,4.63-4.63,4.63S0,7.18,0,4.63C0,2.07,2.07,0,4.63,0C7.18-0.03,9.25,2.07,9.25,4.63
			"/>
		<path fill="#FFFFFF" d="M27.27,18.67c0-2.69,0.84-4.76,2.49-6.24c1.65-1.46,3.95-2.2,6.86-2.2c1.84,0,3.33,0.26,4.5,0.78
			s1.75,1.29,1.75,2.33c0,0.49-0.13,0.97-0.42,1.46c-0.29,0.49-0.52,0.74-0.68,0.87c-0.49-0.23-1.1-0.45-1.84-0.65
			c-0.74-0.19-1.55-0.32-2.49-0.32c-3.43,0-5.11,1.81-5.11,5.44v12.68h-5.05V18.67z"/>
		<path fill="#FFFFFF" d="M47.11,1c0.84,0,1.55,0.29,2.14,0.87c0.58,0.58,0.87,1.29,0.87,2.14c0,0.84-0.29,1.55-0.87,2.14
			c-0.58,0.58-1.29,0.87-2.14,0.87s-1.55-0.29-2.14-0.87c-0.58-0.58-0.87-1.29-0.87-2.14c0-0.84,0.29-1.55,0.87-2.14
			C45.55,1.29,46.26,1,47.11,1 M44.61,13.17c0-0.81,0.23-1.39,0.71-1.78c0.49-0.39,1.13-0.55,1.97-0.55c0.52,0,1,0.06,1.46,0.19
			c0.45,0.13,0.71,0.23,0.87,0.29v21.48h-4.98V13.17H44.61z"/>
		<path fill="#FFFFFF" d="M60.89,32.81c-1.36-2.52-2.62-4.92-3.75-7.15c-1.13-2.23-2.1-4.24-2.94-5.98
			c-0.81-1.75-1.46-3.2-1.88-4.37c-0.42-1.16-0.65-1.94-0.65-2.27c0-0.61,0.19-1.13,0.61-1.55c0.42-0.42,1.04-0.65,1.88-0.65
			c0.61,0,1.1,0.06,1.52,0.16c0.42,0.1,0.61,0.19,0.68,0.26c0.58,1.59,1.2,3.17,1.88,4.79s1.33,3.14,2.01,4.59
			c0.68,1.46,1.26,2.75,1.84,3.95c0.58,1.2,1.04,2.17,1.42,2.91c0.55-1.04,1.16-2.3,1.81-3.72c0.65-1.42,1.26-2.85,1.88-4.24
			c0.61-1.39,1.13-2.69,1.62-3.82c0.49-1.16,0.84-2.01,1.04-2.52c0.29-0.71,0.65-1.29,1.04-1.71c0.42-0.42,1.04-0.65,1.91-0.65
			c0.81,0,1.49,0.13,2.01,0.42c0.52,0.29,0.81,0.45,0.84,0.52c-0.16,0.61-0.49,1.46-0.91,2.52s-0.94,2.26-1.52,3.56
			c-0.58,1.29-1.23,2.69-1.91,4.11c-0.68,1.42-1.36,2.81-2.04,4.17c-0.68,1.36-1.29,2.62-1.91,3.78c-0.61,1.17-1.1,2.14-1.52,2.88
			H60.89L60.89,32.81z"/>
		<path fill="#FFFFFF" d="M96.77,31.19c-0.23,0.13-0.61,0.36-1.1,0.62s-1.13,0.52-1.88,0.74c-0.74,0.23-1.62,0.42-2.59,0.61
			c-0.97,0.16-2.04,0.26-3.24,0.26c-1.62,0-3.17-0.26-4.56-0.74c-1.42-0.49-2.65-1.23-3.72-2.2c-1.07-0.97-1.91-2.17-2.52-3.59
			c-0.61-1.42-0.91-3.04-0.91-4.88c0-1.75,0.29-3.33,0.91-4.79c0.62-1.46,1.42-2.69,2.49-3.72s2.33-1.84,3.75-2.39
			c1.46-0.58,3.04-0.84,4.76-0.84c1.52,0,2.85,0.19,4.04,0.58c1.16,0.39,2.14,0.91,2.94,1.58c0.81,0.68,1.42,1.42,1.81,2.3
			c0.42,0.87,0.61,1.81,0.61,2.81c0,1.04-0.19,1.94-0.58,2.78c-0.39,0.84-1.04,1.55-2.01,2.13c-0.97,0.58-2.26,1.07-3.88,1.39
			c-1.62,0.32-3.72,0.52-6.21,0.52c-0.58,0-1.13,0-1.65-0.03s-1.07-0.03-1.65-0.06c0.23,1.49,0.97,2.69,2.17,3.62
			c1.2,0.91,2.94,1.39,5.18,1.39c0.78,0,1.46-0.06,2.1-0.16c0.65-0.13,1.23-0.26,1.71-0.42c0.49-0.16,0.94-0.36,1.33-0.52
			c0.39-0.16,0.65-0.29,0.81-0.39L96.77,31.19z M81.4,20.84c0.68,0.03,1.33,0.03,1.94,0.03h1.84c1.62,0,2.91-0.1,3.88-0.29
			c1-0.2,1.78-0.45,2.33-0.78c0.55-0.32,0.91-0.68,1.1-1.1c0.16-0.42,0.26-0.84,0.26-1.26c0-1.1-0.45-1.94-1.33-2.49
			c-0.87-0.55-2.01-0.84-3.3-0.84c-1.07,0-2.04,0.19-2.85,0.58c-0.81,0.39-1.49,0.87-2.07,1.52c-0.55,0.61-0.97,1.36-1.29,2.17
			C81.59,19.15,81.4,19.96,81.4,20.84"/>
		<path fill="#FFFFFF" d="M100.23,18.67c0-2.69,0.81-4.76,2.46-6.24c1.65-1.46,3.95-2.2,6.86-2.2c1.84,0,3.33,0.26,4.5,0.78
			s1.71,1.29,1.71,2.33c0,0.49-0.13,0.97-0.42,1.46s-0.48,0.74-0.68,0.87c-0.49-0.23-1.1-0.45-1.84-0.65
			c-0.71-0.19-1.55-0.32-2.49-0.32c-3.4,0-5.11,1.81-5.11,5.44v12.68h-4.98V18.67L100.23,18.67z"/>
		<path fill="#FFFFFF" d="M117.47,27.34c0.19,0.16,0.58,0.32,1.1,0.58c0.52,0.26,1.17,0.49,1.94,0.71c0.78,0.26,1.65,0.45,2.65,0.65
			c1,0.16,2.07,0.26,3.24,0.26c1.52,0,2.75-0.19,3.72-0.58c0.97-0.39,1.46-1.07,1.46-2.04c0-0.81-0.32-1.42-0.91-1.88
			c-0.62-0.42-1.71-0.71-3.27-0.91l-3.4-0.39c-1.17-0.13-2.23-0.32-3.24-0.65s-1.81-0.71-2.52-1.26c-0.71-0.55-1.26-1.17-1.65-1.94
			c-0.39-0.78-0.58-1.68-0.58-2.78c0-0.94,0.2-1.81,0.55-2.65c0.36-0.84,0.94-1.55,1.71-2.2c0.78-0.65,1.81-1.13,3.07-1.52
			c1.26-0.36,2.81-0.55,4.63-0.55c3.04,0,5.4,0.32,7.09,1c1.68,0.68,2.52,1.55,2.52,2.62c0,0.36-0.06,0.65-0.19,0.91
			c-0.13,0.26-0.29,0.49-0.45,0.71c-0.16,0.19-0.32,0.39-0.52,0.52c-0.2,0.13-0.32,0.23-0.39,0.23c-0.13-0.13-0.36-0.29-0.78-0.55
			c-0.42-0.26-0.94-0.49-1.58-0.74c-0.68-0.26-1.49-0.45-2.39-0.65c-0.94-0.19-2.01-0.29-3.24-0.29c-3.4,0-5.08,0.91-5.08,2.69
			c0,0.74,0.32,1.33,0.97,1.71s1.55,0.65,2.75,0.81l4.46,0.58c2.43,0.32,4.3,0.97,5.66,2.01c1.33,1,2.01,2.49,2.01,4.43
			c0,2.2-0.87,3.95-2.59,5.24c-1.71,1.29-4.24,1.97-7.5,1.97c-1.59,0-3.01-0.13-4.3-0.36c-1.29-0.23-2.39-0.52-3.36-0.81
			c-0.94-0.29-1.71-0.61-2.3-0.9c-0.58-0.29-0.97-0.52-1.13-0.65L117.47,27.34z"/>
		<path fill="#FFFFFF" d="M159.63,32.74c-0.29,0.06-0.74,0.13-1.39,0.19c-0.61,0.06-1.36,0.13-2.2,0.23
			c-0.84,0.06-1.78,0.13-2.85,0.2c-1.07,0.06-2.13,0.1-3.27,0.1c-2.26,0-4.14-0.19-5.56-0.58c-1.46-0.39-2.59-0.91-3.4-1.58
			c-0.84-0.65-1.39-1.42-1.71-2.27s-0.45-1.75-0.45-2.65c0-1.2,0.19-2.23,0.55-3.14c0.36-0.91,0.97-1.65,1.78-2.26
			c0.84-0.62,1.91-1.07,3.27-1.39c1.33-0.32,2.98-0.45,4.92-0.45c1.1,0,2.17,0.03,3.14,0.1c1,0.06,1.75,0.13,2.23,0.19
			c0-1.04-0.16-1.88-0.52-2.52c-0.32-0.68-0.81-1.2-1.39-1.59c-0.58-0.39-1.29-0.65-2.1-0.78c-0.81-0.16-1.71-0.23-2.72-0.23
			c-1.65,0-3.01,0.19-4.01,0.58c-1,0.39-1.68,0.71-2.01,0.97c-0.16-0.16-0.42-0.42-0.71-0.84c-0.29-0.42-0.45-0.91-0.45-1.49
			c0-0.42,0.1-0.81,0.32-1.2c0.23-0.39,0.61-0.74,1.17-1.04c0.55-0.32,1.29-0.55,2.23-0.71c0.94-0.16,2.1-0.26,3.56-0.26
			c1.71,0,3.3,0.16,4.69,0.52c1.42,0.32,2.62,0.87,3.66,1.58c1.04,0.74,1.81,1.68,2.39,2.88c0.58,1.2,0.84,2.65,0.84,4.34V32.74
			L159.63,32.74z M154.68,23c-0.29-0.06-0.84-0.13-1.65-0.26c-0.81-0.13-2.01-0.16-3.62-0.16c-1.97,0-3.43,0.29-4.34,0.91
			c-0.91,0.58-1.36,1.55-1.36,2.81c0,0.52,0.1,1,0.29,1.46c0.19,0.42,0.52,0.81,0.97,1.1c0.45,0.29,1.1,0.55,1.91,0.71
			c0.81,0.16,1.81,0.23,3.01,0.23c1.33,0,2.39-0.06,3.2-0.16c0.78-0.1,1.33-0.19,1.58-0.26V23L154.68,23z"/>
		<path fill="#FFFFFF" d="M163.64,19.54c0-1.46,0.26-2.75,0.81-3.92c0.55-1.16,1.29-2.14,2.23-2.94c0.94-0.81,2.07-1.42,3.36-1.84
			s2.72-0.65,4.27-0.65s2.98,0.23,4.3,0.65s2.46,1.04,3.4,1.84c0.94,0.81,1.68,1.78,2.2,2.94c0.52,1.16,0.78,2.46,0.78,3.92v13.26
			h-4.98V20.84c0-1.97-0.48-3.49-1.46-4.53c-0.97-1.04-2.36-1.55-4.24-1.55c-1.91,0-3.33,0.52-4.27,1.55
			c-0.94,1.04-1.42,2.56-1.42,4.53v12h-4.98V19.54z"/>
		<path fill="#FFFFFF" d="M206.8,2.88c0-0.78,0.23-1.36,0.68-1.75c0.45-0.39,1.1-0.58,1.94-0.58c0.52,0,1,0.06,1.46,0.19
			c0.42,0.13,0.71,0.23,0.87,0.29v19.73c0,2.14-0.29,3.98-0.91,5.56c-0.58,1.58-1.42,2.88-2.49,3.95c-1.07,1.07-2.3,1.84-3.72,2.36
			c-1.42,0.52-2.98,0.78-4.69,0.78c-1.72,0-3.3-0.29-4.76-0.87s-2.69-1.39-3.75-2.39c-1.07-1-1.88-2.23-2.46-3.69
			c-0.58-1.42-0.91-2.98-0.91-4.63c0-1.68,0.29-3.24,0.84-4.66c0.55-1.42,1.36-2.65,2.36-3.69s2.2-1.84,3.56-2.39
			c1.36-0.58,2.85-0.84,4.43-0.84c1.68,0,3.17,0.32,4.46,0.97c1.29,0.65,2.3,1.46,3.01,2.39L206.8,2.88L206.8,2.88z M206.8,21.84
			c0-1-0.16-1.94-0.52-2.81c-0.32-0.87-0.81-1.62-1.39-2.27c-0.58-0.65-1.29-1.13-2.14-1.52c-0.84-0.39-1.75-0.55-2.75-0.55
			c-1.04,0-1.94,0.19-2.75,0.55c-0.81,0.36-1.52,0.87-2.13,1.49c-0.62,0.62-1.07,1.39-1.39,2.27c-0.32,0.87-0.49,1.81-0.49,2.85
			c0,1.04,0.16,1.97,0.49,2.81c0.32,0.84,0.78,1.62,1.39,2.23c0.58,0.62,1.29,1.13,2.13,1.49c0.81,0.36,1.75,0.55,2.75,0.55
			c1,0,1.91-0.16,2.75-0.52c0.84-0.36,1.55-0.84,2.14-1.46c0.58-0.62,1.04-1.36,1.39-2.23C206.64,23.85,206.8,22.87,206.8,21.84"/>
		<path fill="#6DB253" d="M9.25,14.66c0,2.56-2.07,4.63-4.63,4.63S0,17.21,0,14.66c0-2.56,2.07-4.63,4.63-4.63S9.25,12.1,9.25,14.66
			"/>
		<path fill="#715EA3" d="M9.25,24.72c0,2.56-2.07,4.63-4.63,4.63S0,27.27,0,24.72c0-2.55,2.07-4.63,4.63-4.63
			S9.25,22.16,9.25,24.72"/>
		<path fill="#DD8C2F" d="M20.22,14.66c0,2.56-2.07,4.63-4.63,4.63c-2.56,0-4.63-2.07-4.63-4.63c0-2.56,2.07-4.63,4.63-4.63
			C18.15,10.03,20.22,12.1,20.22,14.66"/>
		<path fill="#ECD234" d="M20.22,24.72c0,2.56-2.07,4.63-4.63,4.63c-2.56,0-4.63-2.07-4.63-4.63c0-2.55,2.07-4.63,4.63-4.63
			C18.15,20.09,20.22,22.16,20.22,24.72"/>
		<path fill="#CB254C" d="M20.22,34.78c0,2.56-2.07,4.63-4.63,4.63c-2.56,0-4.63-2.07-4.63-4.63c0-2.56,2.07-4.63,4.63-4.63
			C18.15,30.15,20.22,32.22,20.22,34.78"/>
	</g>
</svg>
