<svg xmlns="http://www.w3.org/2000/svg" xmlns:xlink="http://www.w3.org/1999/xlink" x="0px" y="0px" width="188" height="34" viewBox="0 0 188 34">
<g>
	<circle fill="#0EB1E7" cx="4" cy="4" r="4"/>
	<circle fill="#38B449" cx="4" cy="12.67" r="4"/>
	<circle fill="#775EA8" cx="4" cy="21.33" r="4"/>
	<circle fill="#F68E1E" cx="13.37" cy="12.67" r="4"/>
	<circle fill="#F4D20E" cx="13.37" cy="21.33" r="4"/>
	<circle fill="#ED224B" cx="13.37" cy="30" r="4"/>
</g>
<path fill="#4A4E51" d="M184.62,0.67c0,0.05-0.01,0.09-0.02,0.12c-0.01,0.03-0.02,0.06-0.03,0.07h-0.93v2.37h-0.43V0.86h-0.71
	c-0.14,0-0.21-0.06-0.21-0.19c0-0.05,0.01-0.08,0.02-0.12c0.01-0.03,0.02-0.06,0.03-0.07h2.08C184.56,0.48,184.62,0.54,184.62,0.67z
	 M187.98,2.91c0-0.14-0.01-0.3-0.02-0.47c-0.01-0.17-0.02-0.35-0.03-0.54s-0.02-0.37-0.03-0.54c0-0.17-0.01-0.33-0.02-0.47
	c-0.01-0.14-0.01-0.25-0.02-0.32c-0.01-0.01-0.04-0.03-0.08-0.05c-0.04-0.02-0.1-0.03-0.18-0.03c-0.1,0-0.17,0.03-0.22,0.07
	c-0.05,0.05-0.09,0.1-0.12,0.17c-0.04,0.07-0.09,0.17-0.15,0.3c-0.06,0.13-0.13,0.26-0.2,0.41c-0.07,0.14-0.14,0.28-0.2,0.42
	c-0.06,0.14-0.12,0.25-0.16,0.33c-0.03-0.06-0.07-0.14-0.11-0.23c-0.04-0.09-0.09-0.19-0.14-0.29s-0.1-0.2-0.15-0.31
	c-0.05-0.11-0.1-0.21-0.15-0.31c-0.05-0.09-0.09-0.18-0.13-0.26s-0.07-0.14-0.09-0.19c-0.03-0.03-0.07-0.06-0.12-0.08
	c-0.06-0.02-0.12-0.03-0.2-0.03c-0.07,0-0.14,0.02-0.19,0.06c-0.05,0.04-0.07,0.1-0.08,0.18c-0.01,0.07-0.01,0.17-0.02,0.3
	c0,0.13-0.01,0.28-0.02,0.44c-0.01,0.16-0.02,0.33-0.03,0.51c-0.01,0.18-0.02,0.35-0.03,0.51c-0.01,0.16-0.01,0.31-0.02,0.44
	c0,0.13-0.01,0.23-0.01,0.3h0.42c0-0.07,0.01-0.16,0.01-0.27c0.01-0.11,0.01-0.24,0.02-0.38c0-0.14,0.01-0.29,0.02-0.44
	c0.01-0.15,0.01-0.3,0.02-0.44c0.01-0.14,0.02-0.27,0.02-0.38c0-0.11,0.01-0.2,0.01-0.26c0.06,0.11,0.12,0.23,0.19,0.38
	c0.07,0.15,0.15,0.3,0.22,0.45s0.14,0.3,0.21,0.44c0.06,0.14,0.12,0.25,0.17,0.35h0.31c0.04-0.06,0.08-0.14,0.12-0.23
	c0.04-0.09,0.09-0.19,0.14-0.29c0.05-0.1,0.1-0.2,0.15-0.31c0.05-0.11,0.1-0.21,0.15-0.31c0.05-0.1,0.09-0.19,0.13-0.28
	c0.04-0.08,0.07-0.15,0.1-0.21c0,0.04,0,0.12,0.01,0.23c0,0.11,0.01,0.24,0.02,0.39c0,0.15,0.01,0.3,0.02,0.47
	c0.01,0.16,0.02,0.32,0.03,0.47c0.01,0.15,0.01,0.28,0.02,0.39c0,0.11,0.01,0.19,0.01,0.23H188C187.99,3.16,187.99,3.05,187.98,2.91
	z M35.11,9.41c-0.98-0.43-2.26-0.65-3.83-0.65c-2.5,0-4.45,0.63-5.86,1.89c-1.41,1.26-2.11,3.04-2.11,5.33v12.09h4.27V17.22
	c0-3.09,1.46-4.64,4.38-4.64c0.79,0,1.5,0.09,2.13,0.26c0.62,0.17,1.15,0.36,1.57,0.56c0.15-0.1,0.34-0.35,0.58-0.75
	c0.23-0.4,0.35-0.82,0.35-1.24C36.59,10.51,36.09,9.85,35.11,9.41z M40.4,9.27c-0.72,0-1.28,0.16-1.68,0.47
	c-0.4,0.32-0.6,0.82-0.6,1.52h-0.01v16.79h4.27V9.68C42.25,9.63,42,9.55,41.63,9.44S40.85,9.27,40.4,9.27z M40.26,0.86
	c-0.73,0-1.34,0.25-1.83,0.75c-0.5,0.5-0.75,1.11-0.75,1.83c0,0.72,0.25,1.33,0.75,1.83s1.11,0.75,1.83,0.75
	c0.72,0,1.33-0.25,1.83-0.75s0.75-1.11,0.75-1.83c0-0.72-0.25-1.33-0.75-1.83S40.98,0.86,40.26,0.86z M62.17,9.29
	c-0.75,0-1.3,0.18-1.65,0.54s-0.65,0.86-0.9,1.48c-0.18,0.45-0.47,1.16-0.88,2.15c-0.41,0.98-0.87,2.07-1.38,3.27
	c-0.51,1.2-1.04,2.41-1.59,3.63c-0.55,1.22-1.06,2.28-1.53,3.18c-0.33-0.65-0.73-1.48-1.22-2.49c-0.48-1.01-1.01-2.13-1.57-3.37
	c-0.56-1.24-1.13-2.55-1.7-3.93c-0.57-1.39-1.11-2.75-1.61-4.1c-0.05-0.05-0.24-0.12-0.58-0.22c-0.34-0.1-0.77-0.15-1.29-0.15
	c-0.73,0-1.26,0.18-1.61,0.54c-0.35,0.36-0.52,0.81-0.52,1.33c0,0.29,0.19,0.94,0.56,1.94c0.37,1,0.91,2.24,1.61,3.74
	c0.7,1.5,1.54,3.2,2.51,5.11c0.98,1.91,2.05,3.95,3.22,6.12v0.02h4.17c0.35-0.65,0.78-1.47,1.29-2.47s1.06-2.08,1.63-3.24
	c0.57-1.16,1.15-2.35,1.74-3.57c0.59-1.23,1.14-2.4,1.65-3.52c0.51-1.12,0.95-2.14,1.31-3.05s0.62-1.63,0.77-2.15
	c-0.05-0.05-0.29-0.19-0.73-0.43C63.43,9.41,62.87,9.29,62.17,9.29z M82.87,12.55c0.35,0.75,0.52,1.55,0.52,2.39
	c0,0.87-0.16,1.67-0.49,2.38c-0.33,0.71-0.9,1.32-1.72,1.83c-0.82,0.51-1.93,0.91-3.33,1.2c-1.4,0.29-3.17,0.43-5.31,0.43
	c-0.5,0-0.97-0.01-1.4-0.02c-0.44-0.01-0.9-0.03-1.4-0.06c0.2,1.27,0.82,2.3,1.85,3.09c1.03,0.79,2.51,1.18,4.43,1.18
	c0.65,0,1.25-0.05,1.8-0.15c0.55-0.1,1.04-0.22,1.48-0.38c0.44-0.15,0.81-0.3,1.12-0.45s0.54-0.26,0.69-0.34l1.57,3.02
	c-0.2,0.13-0.51,0.3-0.93,0.52c-0.42,0.22-0.95,0.44-1.59,0.64c-0.63,0.2-1.37,0.37-2.21,0.52c-0.84,0.15-1.75,0.22-2.75,0.22
	c-1.4,0-2.7-0.21-3.91-0.63s-2.27-1.05-3.18-1.89c-0.91-0.84-1.63-1.86-2.15-3.07c-0.52-1.21-0.79-2.6-0.79-4.17
	c0-1.5,0.25-2.86,0.77-4.1c0.51-1.24,1.22-2.29,2.13-3.18c0.91-0.89,1.98-1.57,3.22-2.06c1.23-0.49,2.59-0.73,4.06-0.73
	c1.3,0,2.44,0.17,3.44,0.5c1,0.34,1.84,0.79,2.53,1.35C82,11.15,82.52,11.81,82.87,12.55z M79.24,14.91c0-0.95-0.38-1.66-1.14-2.13
	c-0.76-0.47-1.7-0.71-2.83-0.71c-0.92,0-1.73,0.16-2.43,0.49c-0.7,0.32-1.29,0.75-1.76,1.29c-0.47,0.54-0.84,1.15-1.1,1.85
	c-0.26,0.68-0.4,1.39-0.43,2.11c0.57,0.03,1.12,0.04,1.65,0.04h1.57c1.37,0,2.48-0.09,3.33-0.26s1.51-0.4,1.98-0.67
	c0.47-0.27,0.79-0.58,0.93-0.93C79.16,15.64,79.24,15.28,79.24,14.91z M97.44,9.41c-0.98-0.43-2.26-0.65-3.83-0.65
	c-2.5,0-4.45,0.63-5.86,1.89c-1.4,1.26-2.11,3.04-2.11,5.33h-0.01v12.09h4.27V17.22c0-3.09,1.46-4.64,4.38-4.64
	c0.8,0,1.51,0.09,2.13,0.26c0.62,0.17,1.15,0.36,1.57,0.56c0.15-0.1,0.34-0.35,0.58-0.75c0.24-0.4,0.36-0.82,0.36-1.24
	C98.92,10.51,98.42,9.85,97.44,9.41z M115.16,18.62c-1.15-0.86-2.76-1.42-4.83-1.7l-3.82-0.49c-1.03-0.12-1.81-0.35-2.36-0.69
	c-0.55-0.34-0.82-0.83-0.82-1.48c0-1.52,1.45-2.28,4.34-2.28c1.05,0,1.97,0.08,2.77,0.24c0.8,0.16,1.49,0.35,2.06,0.56
	c0.57,0.22,1.03,0.43,1.36,0.64c0.34,0.21,0.56,0.37,0.66,0.47c0.08-0.03,0.19-0.1,0.34-0.21c0.15-0.11,0.29-0.26,0.43-0.43
	c0.14-0.18,0.27-0.38,0.38-0.6c0.11-0.23,0.17-0.49,0.17-0.79c0-0.93-0.71-1.68-2.15-2.25c-1.43-0.57-3.45-0.86-6.04-0.86
	c-1.55,0-2.86,0.16-3.95,0.47c-1.09,0.31-1.97,0.74-2.64,1.29c-0.68,0.55-1.17,1.18-1.48,1.89s-0.47,1.46-0.47,2.26
	c0,0.93,0.16,1.72,0.5,2.38c0.33,0.67,0.8,1.22,1.4,1.67s1.32,0.81,2.15,1.07c0.84,0.26,1.75,0.44,2.75,0.54l2.92,0.34
	c1.35,0.15,2.29,0.41,2.81,0.77c0.53,0.36,0.79,0.89,0.79,1.59c0,0.82-0.42,1.4-1.24,1.74c-0.82,0.33-1.88,0.5-3.18,0.5
	c-1,0-1.92-0.08-2.77-0.23c-0.84-0.15-1.6-0.33-2.26-0.54c-0.66-0.21-1.21-0.42-1.66-0.62c-0.45-0.2-0.77-0.36-0.94-0.49l-1.61,2.89
	c0.15,0.12,0.47,0.31,0.97,0.56s1.15,0.51,1.96,0.77s1.76,0.49,2.86,0.69c1.1,0.2,2.32,0.3,3.67,0.3c2.79,0,4.93-0.56,6.42-1.68
	c1.49-1.12,2.23-2.62,2.23-4.49C116.88,20.75,116.31,19.48,115.16,18.62z M135.68,13.03c0.49,1.02,0.73,2.26,0.73,3.7v11.26
	c-0.25,0.05-0.64,0.11-1.18,0.17c-0.54,0.06-1.17,0.13-1.89,0.19c-0.72,0.06-1.54,0.12-2.43,0.17c-0.9,0.05-1.83,0.08-2.81,0.08
	c-1.95,0-3.54-0.17-4.77-0.5c-1.24-0.34-2.21-0.79-2.92-1.35s-1.2-1.21-1.46-1.95c-0.26-0.74-0.39-1.49-0.39-2.26
	c0-1.02,0.16-1.92,0.47-2.69c0.31-0.77,0.82-1.42,1.53-1.95c0.71-0.52,1.64-0.92,2.79-1.18c1.14-0.26,2.54-0.39,4.19-0.39
	c0.95,0,1.85,0.03,2.7,0.09s1.48,0.12,1.91,0.17c0-0.87-0.14-1.6-0.43-2.17c-0.29-0.57-0.68-1.02-1.18-1.35
	c-0.5-0.32-1.1-0.55-1.8-0.67c-0.7-0.13-1.47-0.19-2.32-0.19c-1.42,0-2.56,0.16-3.42,0.49c-0.86,0.32-1.43,0.6-1.7,0.82
	c-0.15-0.12-0.36-0.36-0.62-0.71s-0.39-0.77-0.39-1.27c0-0.35,0.09-0.69,0.28-1.03c0.19-0.34,0.52-0.64,0.99-0.9
	c0.47-0.26,1.11-0.47,1.91-0.62c0.8-0.15,1.81-0.23,3.03-0.23c1.47,0,2.81,0.14,4.02,0.43c1.21,0.29,2.25,0.74,3.12,1.37
	C134.51,11.18,135.19,12.01,135.68,13.03z M132.17,19.68c-0.25-0.05-0.71-0.12-1.4-0.22c-0.69-0.1-1.71-0.15-3.09-0.15
	c-1.7,0-2.93,0.26-3.71,0.77c-0.77,0.51-1.16,1.32-1.16,2.41c0,0.45,0.08,0.86,0.24,1.24c0.16,0.37,0.44,0.69,0.84,0.95
	c0.4,0.26,0.94,0.46,1.63,0.6c0.69,0.14,1.54,0.21,2.56,0.21c1.15,0,2.06-0.04,2.73-0.13c0.67-0.09,1.12-0.15,1.34-0.21v-5.47
	H132.17z M155.55,10.86c-0.81-0.68-1.78-1.21-2.9-1.57c-1.12-0.36-2.35-0.54-3.67-0.54c-1.33,0-2.54,0.18-3.65,0.54
	s-2.07,0.88-2.88,1.57s-1.45,1.52-1.91,2.51c-0.46,0.99-0.69,2.1-0.69,3.35v11.34h4.26V17.81c0-1.69,0.41-2.99,1.22-3.87
	c0.81-0.89,2.03-1.33,3.65-1.33c1.6,0,2.81,0.44,3.63,1.33c0.82,0.88,1.23,2.17,1.23,3.87v10.25h4.27V16.72
	c0-1.25-0.22-2.36-0.67-3.35C156.99,12.38,156.36,11.55,155.55,10.86z M180.21,0.65c0.38,0.11,0.62,0.19,0.75,0.24v16.87
	c0,1.82-0.26,3.41-0.77,4.75c-0.51,1.35-1.21,2.47-2.11,3.37s-1.96,1.57-3.18,2.02c-1.22,0.45-2.56,0.67-4.01,0.67
	c-1.47,0-2.82-0.25-4.06-0.75c-1.23-0.5-2.3-1.18-3.2-2.06c-0.9-0.87-1.6-1.92-2.11-3.14s-0.77-2.54-0.77-3.96
	c0-1.45,0.24-2.78,0.73-3.99s1.16-2.26,2.02-3.14c0.86-0.88,1.87-1.57,3.03-2.06c1.16-0.49,2.43-0.73,3.8-0.73
	c1.45,0,2.72,0.28,3.82,0.84c1.1,0.56,1.96,1.24,2.58,2.04V2.47c0-0.67,0.19-1.17,0.58-1.5c0.39-0.32,0.94-0.49,1.67-0.49
	C179.43,0.48,179.84,0.54,180.21,0.65z M176.73,18.67c0-0.85-0.14-1.65-0.43-2.4s-0.68-1.4-1.18-1.95c-0.5-0.55-1.1-0.98-1.81-1.29
	c-0.71-0.31-1.49-0.47-2.34-0.47c-0.87,0-1.66,0.16-2.36,0.47c-0.7,0.31-1.3,0.74-1.81,1.27c-0.51,0.54-0.9,1.18-1.18,1.93
	s-0.41,1.56-0.41,2.43c0,0.87,0.13,1.68,0.41,2.41c0.27,0.74,0.67,1.37,1.18,1.91c0.51,0.54,1.12,0.96,1.81,1.27
	c0.7,0.31,1.48,0.47,2.36,0.47c0.85,0,1.63-0.15,2.34-0.45c0.71-0.3,1.32-0.71,1.81-1.23c0.5-0.52,0.89-1.16,1.18-1.91
	C176.59,20.39,176.73,19.57,176.73,18.67z"/>
</svg>
